<svg xmlns="http://www.w3.org/2000/svg" xmlns:svg="http://www.w3.org/2000/svg" xmlns:xlink="http://www.w3.org/1999/xlink" id="svg2" width="160" height="90" version="1.1"><defs id="defs4"><radialGradient id="radialGradient4783" cx="7.722" cy="2.722" r="3.5" fx="7.722" fy="2.722" gradientTransform="matrix(1,0,0,0.71428571,0,1)" gradientUnits="userSpaceOnUse" xlink:href="#linearGradient4041"/><linearGradient id="linearGradient4041"><stop style="stop-color:#ccc;stop-opacity:1" id="stop4043" offset="0"/><stop style="stop-color:#000;stop-opacity:0" id="stop4045" offset="1"/></linearGradient><radialGradient id="radialGradient4817" cx="7.722" cy="2.722" r="3.5" fx="7.722" fy="2.722" gradientTransform="matrix(1,0,0,0.71428571,0,1)" gradientUnits="userSpaceOnUse" xlink:href="#linearGradient4041-2"/><linearGradient id="linearGradient4041-2"><stop style="stop-color:#ccc;stop-opacity:1" id="stop4043-5" offset="0"/><stop style="stop-color:#000;stop-opacity:0" id="stop4045-9" offset="1"/></linearGradient><radialGradient id="radialGradient4817-4" cx="7.722" cy="2.722" r="3.5" fx="7.722" fy="2.722" gradientTransform="matrix(1,0,0,0.71428571,0,1)" gradientUnits="userSpaceOnUse" xlink:href="#linearGradient4041-4"/><linearGradient id="linearGradient4041-4"><stop style="stop-color:#ccc;stop-opacity:1" id="stop4043-4" offset="0"/><stop style="stop-color:#000;stop-opacity:0" id="stop4045-7" offset="1"/></linearGradient><linearGradient id="linearGradient4041-6"><stop style="stop-color:#ccc;stop-opacity:1" id="stop4043-1" offset="0"/><stop style="stop-color:#000;stop-opacity:0" id="stop4045-8" offset="1"/></linearGradient><linearGradient id="linearGradient4041-2-0"><stop style="stop-color:#ccc;stop-opacity:1" id="stop4043-5-1" offset="0"/><stop style="stop-color:#000;stop-opacity:0" id="stop4045-9-4" offset="1"/></linearGradient><linearGradient id="linearGradient4041-4-6"><stop style="stop-color:#ccc;stop-opacity:1" id="stop4043-4-6" offset="0"/><stop style="stop-color:#000;stop-opacity:0" id="stop4045-7-5" offset="1"/></linearGradient></defs><metadata id="metadata7"/><g id="layer1" transform="translate(0,-962.36218)"><g style="font-size:40px;font-style:normal;font-weight:400;line-height:125%;letter-spacing:0;word-spacing:0;fill:#000;fill-opacity:1;stroke:none;font-family:Sans" id="text4053"><path id="path3141" d="m 59.257812,1018.8856 13.769532,0 0,3.3203 -18.515625,0 0,-3.3203 c 1.497391,-1.5495 3.53515,-3.6263 6.113281,-6.2305 2.591134,-2.6172 4.218737,-4.3034 4.882812,-5.0586 1.263006,-1.4193 2.141912,-2.6172 2.636719,-3.5938 0.507796,-0.9895 0.761702,-1.9596 0.761719,-2.9101 -1.7e-5,-1.54947 -0.546892,-2.81249 -1.640625,-3.78907 -1.080744,-0.97654 -2.493503,-1.46482 -4.238281,-1.46485 -1.23699,3e-5 -2.545582,0.21487 -3.925782,0.64454 -1.367193,0.42971 -2.832035,1.08075 -4.394531,1.95312 l 0,-3.98437 c 1.588537,-0.638 3.072911,-1.11977 4.453125,-1.44532 1.3802,-0.32549 2.643219,-0.48825 3.789063,-0.48828 3.020819,3e-5 5.42967,0.75524 7.226562,2.26563 1.796855,1.51044 2.695291,3.52867 2.695313,6.0547 -2.2e-5,1.1979 -0.227886,2.3372 -0.683594,3.418 -0.442728,1.0677 -1.25653,2.3307 -2.441406,3.789 -0.325539,0.3776 -1.360694,1.4714 -3.105469,3.2813 -1.744805,1.7968 -4.20574,4.3164 -7.382813,7.5586"/><path id="path3143" d="m 84.921875,996.2879 0,22.6758 4.765625,0 c 4.023421,0 6.966126,-0.9115 8.828125,-2.7344 1.874975,-1.8229 2.812475,-4.7005 2.812505,-8.6328 -3e-5,-3.9062 -0.93753,-6.7643 -2.812505,-8.57422 -1.861999,-1.82289 -4.804704,-2.73435 -8.828125,-2.73438 l -4.765625,0 m -3.945313,-3.24218 8.105469,0 c 5.651024,2e-5 9.798156,1.17841 12.441409,3.53515 2.6432,2.34377 3.96481,6.01563 3.96484,11.01563 -3e-5,5.026 -1.32815,8.7175 -3.98437,11.0742 -2.656276,2.3568 -6.796896,3.5352 -12.421879,3.5352 l -8.105469,0 0,-29.16018"/></g></g></svg>