<svg xmlns="http://www.w3.org/2000/svg" id="svg3967" width="40" height="40" version="1.1"><metadata id="metadata3972"/><g id="layer1" fill="none" stroke="#000" stroke-dasharray="none" stroke-linecap="butt" stroke-miterlimit="4" stroke-width="4" transform="matrix(1.4285714,0,0,1.4285715,-8.5714276,-1454.8033)"><path id="path5228" stroke-linejoin="miter" d="m20,0,0,6.9999" transform="matrix(0.70000001,0,0,0.69999997,5.9999994,1018.3623)"/><path id="path5230" stroke-linejoin="round" d="m0,20,7-0.000059" transform="matrix(0.70000001,0,0,0.69999997,5.9999994,1018.3623)"/><path id="path5232" stroke-linejoin="miter" d="M33,20a13,13,0,1,1,-26,0,13,13,0,1,1,26,0z" transform="matrix(0.70000001,0,0,0.69999997,5.9999994,1018.3623)"/><path id="path5255" stroke-linejoin="miter" d="m20,40,0-7" transform="matrix(0.70000001,0,0,0.69999997,5.9999994,1018.3623)"/><path id="path5257" stroke-linejoin="miter" d="m40,20-7,0" transform="matrix(0.70000001,0,0,0.69999997,5.9999994,1018.3623)"/></g></svg>