<svg xmlns="http://www.w3.org/2000/svg" xmlns:svg="http://www.w3.org/2000/svg" id="svg2" width="40" height="40" version="1.1"><metadata id="metadata7"/><g id="layer1" transform="translate(0,-1012.3622)"><path style="opacity:1;fill:red;fill-opacity:.60000001999999997;fill-rule:evenodd;stroke:maroon;stroke-opacity:1" id="path4960-9" d="M 25,12.5 C 25,19.403559 19.403559,25 12.5,25 5.5964406,25 0,19.403559 0,12.5 0,5.5964406 5.5964406,0 12.5,0 19.403559,0 25,5.5964406 25,12.5 z" transform="translate(0.572,1025.3622)"/><path style="opacity:1;fill:#00f;fill-opacity:.60000001999999997;fill-rule:evenodd;stroke:navy;stroke-opacity:1" id="path4960" d="M 25,12.5 C 25,19.403559 19.403559,25 12.5,25 5.5964406,25 0,19.403559 0,12.5 0,5.5964406 5.5964406,0 12.5,0 19.403559,0 25,5.5964406 25,12.5 z" transform="translate(7.5002035,1013.3622)"/><path style="opacity:1;fill:#0f0;fill-opacity:.60000001999999997;fill-rule:evenodd;stroke:green;stroke-opacity:1" id="path4960-5" d="M 25,12.5 C 25,19.403559 19.403559,25 12.5,25 5.5964406,25 0,19.403559 0,12.5 0,5.5964406 5.5964406,0 12.5,0 19.403559,0 25,5.5964406 25,12.5 z" transform="translate(14.428406,1025.3622)"/></g></svg>