<svg xmlns="http://www.w3.org/2000/svg" xmlns:svg="http://www.w3.org/2000/svg" id="svg2" width="40" height="40" version="1.1" xml:space="preserve"><metadata id="metadata8"/><g style="font-size:40px;font-style:normal;font-weight:700;line-height:125%;letter-spacing:0;word-spacing:0;fill:#000;fill-opacity:1;stroke:none;font-family:Sans;-inkscape-font-specification:Sans Bold" id="text3882" transform="matrix(0.76532136,0,0,0.85733422,-4.7847647,16.103041)"><path id="path3887" d="m 6.2519681,-1.2865944 6.5332029,5e-7 0,11.6640629 7.839844,0 c 0,1.166406 5.662109,6.220833 6.533203,6.998437 2.177735,1.555209 2.613282,1.166406 3.919922,1.166406 l 0,9.331251 -6.533203,0 0,-11.664063 -11.759766,0 0,11.664063 -6.5332029,-1e-6 0,-29.1601564"/></g><g id="g3878" transform="matrix(0.74729598,0,0,0.750103,10.105427,-0.00281451)"><path style="fill:#000;fill-opacity:1;stroke:#000;stroke-width:4;stroke-linecap:round;stroke-linejoin:round;stroke-miterlimit:4;stroke-opacity:1;stroke-dasharray:none" id="path6826" d="m 38,2 -14,14 0,7 -7,-7 7,0"/><path style="fill:#000;fill-opacity:1;stroke:#000;stroke-width:2.00026536000000021;stroke-linecap:round;stroke-linejoin:round;stroke-miterlimit:4;stroke-opacity:1;stroke-dasharray:none" id="path6824" d="m 1,17 c 0,0 -0.92579917,5.685502 2,13 2,5 7,9 7,9 5,-1 12,-8 12,-13 l -8,-8 c 0,0 -2,1 -7,1 -5.3851648,0 -6,-2 -6,-2 z"/></g></svg>