<svg xmlns="http://www.w3.org/2000/svg" xmlns:svg="http://www.w3.org/2000/svg" id="svg4103" width="82" height="20" version="1.1" viewBox="0 0 82 20"><metadata id="metadata4108"/><g id="layer1" transform="translate(0,-1032.3622)"><g style="stroke:#424242;stroke-opacity:1" id="g4236" transform="matrix(1.1549279,0,0,1.1549279,-23.142808,-164.39356)"><g id="g5793"><circle id="path3172" cx="43" cy="10" r="5" transform="matrix(0.79998258,0,0,0.79998258,8.1007485,1036.8624)" style="fill:none;stroke:#424242;stroke-width:1.25024486;stroke-linecap:round;stroke-miterlimit:4;stroke-dasharray:none;stroke-opacity:1"/><path id="path3172-2" d="m 52.499999,1048.862 c -2.209091,0 -3.999913,-1.7908 -3.999913,-3.9999 0,-2.2091 0,-3.9999 0,-3.9999" style="display:inline;fill:none;stroke:#424242;stroke-width:1.00017416;stroke-linecap:round;stroke-miterlimit:4;stroke-opacity:1"/><path id="path4003" d="m 65.500003,1042.8622 -4e-6,5.9" style="fill:none;stroke:#424242;stroke-width:1px;stroke-linecap:round;stroke-linejoin:miter;stroke-opacity:1"/><path id="path3125-1-2" d="m 62.499998,1038.8622 0,7.5 c 0,6 -7.999999,6 -7.999999,0 l 0,-7.5" style="display:inline;fill:none;stroke:#424242;stroke-width:1px;stroke-linecap:round;stroke-linejoin:miter;stroke-opacity:1"/><g id="g3839" transform="translate(0.49991586,2.0897245e-5)" style="stroke:#424242;stroke-opacity:1"><path style="display:inline;fill:none;stroke:#424242;stroke-width:1.00017416;stroke-linecap:round;stroke-miterlimit:4;stroke-opacity:1" id="path3172-4" d="m 74.328365,1047.6906 c -0.723842,0.7238 -1.72382,1.1715 -2.828366,1.1715 -2.209091,0 -3.999913,-1.7908 -3.999913,-3.9999 0,-2.2091 1.790822,-3.9999 3.999913,-3.9999 1.104546,0 2.104524,0.4477 2.828366,1.1716 0.723842,0.7238 1.171547,1.7238 1.171547,2.8283"/><path style="fill:none;stroke:#424242;stroke-width:1px;stroke-linecap:round;stroke-linejoin:miter;stroke-opacity:1" id="path4181" d="m 70.999999,1044.8622 4.5,0"/></g><g id="g3843" transform="translate(1.0000037,0)" style="stroke:#424242;stroke-opacity:1"><path style="display:inline;fill:none;stroke:#424242;stroke-width:1px;stroke-linecap:round;stroke-linejoin:miter;stroke-opacity:1" id="path3125-8-5-2" d="m 83.499999,1040.8622 0,5 c 0,4 -6,4 -6,0 l 0,-5"/><path style="display:inline;fill:none;stroke:#424242;stroke-width:1px;stroke-linecap:round;stroke-linejoin:miter;stroke-opacity:1" id="path3125-8-5-2-4" d="m 89.499999,1040.8622 0,5 c 0,4 -6,4 -6,0 l 0,-5"/></g><g id="g3847" style="stroke:#424242;stroke-opacity:1"><path style="display:inline;fill:none;stroke:#424242;stroke-width:1px;stroke-linecap:round;stroke-linejoin:miter;stroke-opacity:1" id="path3125-1" d="m 28.5,1050.8622 0,-7.5 c 0,-6 8,-6 8,0 l 0,7.5"/><path style="display:inline;fill:none;stroke:#424242;stroke-width:1px;stroke-linecap:round;stroke-linejoin:miter;stroke-opacity:1" id="path3125-1-8" d="m 20.5,1050.8622 0,-7.5 c 0,-6 8,-6 8,0 l 0,7.5"/></g><circle style="fill:#212121;fill-opacity:1;stroke:#424242;stroke-width:1;stroke-linecap:round;stroke-linejoin:round;stroke-miterlimit:4;stroke-dasharray:none;stroke-opacity:1" id="path3067" cx="65.5" cy="3.5" r=".5" transform="translate(2.7231011e-6,1036.8622)"/></g></g></g></svg>