<svg xmlns="http://www.w3.org/2000/svg" xmlns:svg="http://www.w3.org/2000/svg" xmlns:xlink="http://www.w3.org/1999/xlink" id="svg3004" width="128" height="128" version="1.1"><defs id="defs3006"><linearGradient id="linearGradient4136"><stop style="stop-color:#ccc;stop-opacity:1" id="stop4138" offset="0"/><stop style="stop-color:#eee;stop-opacity:1" id="stop4140" offset="1"/></linearGradient><linearGradient id="linearGradient4144" x1="64.85" x2="64.967" y1="128" y2="0" gradientUnits="userSpaceOnUse" xlink:href="#linearGradient4136"/><linearGradient id="linearGradient3918"><stop id="stop3920" offset="0" style="stop-color:#fff;stop-opacity:1"/><stop style="stop-color:#fff;stop-opacity:1" id="stop3922" offset=".5"/><stop id="stop3933" offset=".9" style="stop-color:#969696;stop-opacity:1"/><stop id="stop3924" offset="1" style="stop-color:#646464;stop-opacity:1"/></linearGradient><linearGradient id="linearGradient3832"><stop style="stop-color:#ff9191;stop-opacity:1" id="stop3834" offset="0"/><stop id="stop3916" offset=".5" style="stop-color:#ff0d0d;stop-opacity:1"/><stop style="stop-color:#c80000;stop-opacity:1" id="stop3836" offset="1"/></linearGradient><linearGradient id="linearGradient3814-2"><stop style="stop-color:#000;stop-opacity:.3764706" id="stop3816-9" offset="0"/><stop style="stop-color:#000;stop-opacity:0" id="stop3818-0" offset="1"/></linearGradient><linearGradient id="linearGradient3814"><stop style="stop-color:#fff;stop-opacity:1" id="stop3816" offset="0"/><stop id="stop3912" offset=".5" style="stop-color:#fff;stop-opacity:1"/><stop style="stop-color:#969696;stop-opacity:1" id="stop3931" offset=".9"/><stop style="stop-color:#646464;stop-opacity:1" id="stop3818" offset="1"/></linearGradient><radialGradient id="radialGradient4661" cx="4.189" cy="12.111" r="3.5" fx="4.189" fy="12.111" gradientTransform="matrix(1.1111075,4.2782638e-8,-4.278271e-8,1.1111054,-0.54319037,-1.3456092)" gradientUnits="userSpaceOnUse" xlink:href="#linearGradient3918"/><radialGradient id="radialGradient4663" cx="7" cy="1043.362" r="6" fx="7" fy="1043.362" gradientTransform="translate(0,-1.0000328)" gradientUnits="userSpaceOnUse" spreadMethod="pad" xlink:href="#linearGradient3832"/><radialGradient id="radialGradient4665" cx="8" cy="1050.362" r="6" fx="8" fy="1050.362" gradientTransform="matrix(1,1.8056953e-5,-1.8056644e-5,0.99998288,0.01896562,-0.98225093)" gradientUnits="userSpaceOnUse" spreadMethod="pad" xlink:href="#linearGradient3814-2"/><radialGradient id="radialGradient4667" cx="11" cy="1047.362" r="4.125" fx="11" fy="1047.362" gradientTransform="matrix(1.2120363,2.826767e-6,-2.8267908e-6,1.2120463,-2.3294388,-223.08929)" gradientUnits="userSpaceOnUse" xlink:href="#linearGradient3814"/></defs><metadata id="metadata3009"/><g id="layer1" transform="translate(0,-924.3622)"><rect style="color:#000;fill:url(#linearGradient4144);fill-opacity:1;fill-rule:evenodd;stroke:none;stroke-width:2;marker:none;visibility:visible;display:inline;overflow:visible;enable-background:accumulate" id="rect4134" width="128" height="128" x="0" y="0" ry="0" transform="translate(0,924.3622)"/><g style="display:inline" id="g3153" transform="matrix(6,0,0,6,17.999912,-5277.8112)"><path id="path4014" d="M 8,12.5 C 8,14.432997 6.4329966,16 4.5,16 2.5670034,16 1,14.432997 1,12.5 1,10.567003 2.5670034,9 4.5,9 6.4329966,9 8,10.567003 8,12.5 z" transform="matrix(1.2857185,0,0,1.2857208,-1.2857185,1030.7907)" style="fill:url(#radialGradient4661);fill-opacity:1;stroke:none"/><path id="path4018-7-4-3" d="m 8,1037.3622 c -3.2414019,0 -5.8862848,2.5676 -6,5.7813 0.568902,3.02 2.8465562,5.4259 5.78125,6.2187 0.071688,0 0.1464434,0 0.21875,0 3.313708,0 6,-2.6863 6,-6 0,-3.3137 -2.686292,-6 -6,-6 z" style="fill:url(#radialGradient4663);fill-opacity:1;stroke:none;display:inline"/><path id="path4018-7-4-3-3" d="m 8,1037.3622 c -3.2414019,0 -5.8862848,2.5676 -6,5.7813 0.568902,3.02 2.8465562,5.4259 5.78125,6.2187 0.071688,0 0.1464434,0 0.21875,0 3.313708,0 6,-2.6863 6,-6 0,-3.3137 -2.686292,-6 -6,-6 z" style="fill:url(#radialGradient4665);fill-opacity:1;stroke:none;display:inline"/><path id="path4018-7-2" d="m 13.96875,1043.1124 c -3.10128,0.6466 -5.572119,3.1175 -6.21875,6.2188 -0.002,0.01 0.002,0.022 0,0.031 0.805574,1.2162 2.181942,2 3.75,2 2.485281,0 4.5,-2.0147 4.5,-4.5 0,-1.5681 -0.78379,-2.9444 -2,-3.75 -0.0073,0 -0.02388,0 -0.03125,0 z" style="fill:url(#radialGradient4667);fill-opacity:1;stroke:none;display:inline"/></g></g></svg>